# xmcd
#
# Track frame offsets: 
#        150
#        16069
#        34637
#        64676
#        85185
#        98976
#        113577
#        157200
#        170226
#        187213
#        218326
#        258494
#
# Disc length: 3667 seconds
#
# Revision: 1
# Processed by: cddbd v1.5.2PL0 Copyright (c) Steve Scherf et al.
# Submitted via: ExactAudioCopy v0.95b4
#
DISCID=9e0e510c
DTITLE=Stevie Ray Vaughan - Live At The El Mocambo
DYEAR=2001
DGENRE=Blues
TTITLE0=Testify
TTITLE1=So Excited
TTITLE2=Voodoo Chile (Slight Return)
TTITLE3=Pride and Joy
TTITLE4=Tell Me
TTITLE5=Mary Had a Little Lamb
TTITLE6=Texas Flood
TTITLE7=Love Struck Baby
TTITLE8=Hug You Squeeze You
TTITLE9=Third Stone From the Sun
TTITLE10=Lenny
TTITLE11=Wham!
EXTD=
EXTT0=
EXTT1=
EXTT2=
EXTT3=
EXTT4=
EXTT5=
EXTT6=
EXTT7=
EXTT8=
EXTT9=
EXTT10=
EXTT11=
PLAYORDER=
